<?xml version="1.0" encoding="utf-8"?>
<!-- Generator: Adobe Illustrator 19.0.0, SVG Export Plug-In . SVG Version: 6.00 Build 0)  -->
<svg version="1.1" id="layer" xmlns="http://www.w3.org/2000/svg" xmlns:xlink="http://www.w3.org/1999/xlink" x="0px" y="0px"
	 viewBox="-153 -46 652 652" style="enable-background:new -153 -46 652 652;" xml:space="preserve">
<style type="text/css">
	.st0{fill:#FBF420;}
	.st1{fill:#E6001E;}
</style>
<rect x="-72.6" y="25.1" class="st0" width="482.1" height="500"/>
<rect x="71.1" y="88.3" width="16.5" height="62.4"/>
<g>
	<path d="M125.4,150.8c-17.3,0-31.4-14-31.4-31.2s14.1-31.2,31.4-31.2h14.8v15.8h-14.8c-8.5,0-15.4,6.9-15.4,15.4
		c0,8.5,6.9,15.4,15.4,15.4h14.8v15.8H125.4z"/>
	<path d="M222.7,103.5c-8.8,0-16,7.2-16,16c0,8.8,7.2,16,16,16c8.8,0,16-7.2,16-16C238.7,110.7,231.6,103.5,222.7,103.5
		 M222.7,151.4c-17.7,0-32-14.3-32-31.8c0-17.6,14.4-31.8,32-31.8c17.7,0,32,14.3,32,31.8C254.8,137.1,240.4,151.4,222.7,151.4"/>
</g>
<polygon points="160.5,150.8 160.5,104.1 146,104.1 146,88.3 191.1,88.3 191.1,104.1 176.6,104.1 176.6,150.8 "/>
<g>
	<path d="M314.7,113.8c0-14-9.8-25.4-27.7-25.4h-27.7v62.4h16.1v-46.9h13.5c5.4,0,9.8,4.6,9.8,9.7c0,6-4.9,9.8-13.4,9.8h-5.7
		l15.8,27.4h19l-12-18.1C309.3,129.1,314.7,121.8,314.7,113.8"/>
</g>
<polygon points="48.2,88.3 32.6,136 17,88.3 -2.6,88.3 22.5,150.8 42.7,150.8 67.8,88.3 "/>
<g>
	<path class="st1" d="M337.7,180.5h1.9c0.4,0,0.8,0,1.2,0c0.4,0,0.8-0.1,1.1-0.2c0.3-0.1,0.6-0.3,0.8-0.6c0.2-0.3,0.3-0.6,0.3-1.1
		c0-0.5-0.1-0.8-0.3-1.1c-0.2-0.3-0.5-0.5-0.8-0.6c-0.3-0.1-0.7-0.2-1.1-0.2c-0.4,0-0.8,0-1.2,0h-1.9V180.5z M335.2,174.5h5.4
		c1.7,0,2.9,0.4,3.7,1.1c0.8,0.7,1.2,1.7,1.2,3.1c0,1.2-0.3,2.1-0.9,2.7c-0.6,0.6-1.4,1-2.4,1.1l3.6,5.8h-2.7l-3.5-5.6h-1.9v5.6
		h-2.6V174.5z M329.8,181.4c0,1.4,0.3,2.6,0.8,3.8c0.5,1.2,1.2,2.2,2.1,3.1c0.9,0.9,2,1.6,3.2,2.1c1.2,0.5,2.5,0.8,3.9,0.8
		s2.7-0.3,3.9-0.8c1.2-0.5,2.3-1.2,3.2-2.1c0.9-0.9,1.6-1.9,2.1-3.1c0.5-1.2,0.8-2.5,0.8-3.8c0-1.4-0.3-2.6-0.8-3.8
		c-0.5-1.2-1.2-2.3-2.1-3.2c-0.9-0.9-2-1.6-3.2-2.1c-1.2-0.5-2.5-0.8-3.9-0.8s-2.7,0.3-3.9,0.8c-1.2,0.5-2.3,1.2-3.2,2.1
		c-0.9,0.9-1.6,1.9-2.1,3.2C330.1,178.8,329.8,180.1,329.8,181.4 M327.7,181.4c0-1.7,0.3-3.2,1-4.7c0.6-1.5,1.5-2.7,2.6-3.8
		c1.1-1.1,2.4-1.9,3.9-2.6c1.5-0.6,3.1-1,4.7-1c1.7,0,3.3,0.3,4.7,1c1.5,0.6,2.8,1.5,3.9,2.6c1.1,1.1,2,2.4,2.6,3.8
		c0.6,1.5,1,3,1,4.7c0,1.7-0.3,3.2-1,4.7c-0.6,1.5-1.5,2.7-2.6,3.8c-1.1,1.1-2.4,1.9-3.9,2.6c-1.5,0.6-3.1,1-4.7,1
		c-1.7,0-3.3-0.3-4.7-1c-1.5-0.6-2.8-1.5-3.9-2.6c-1.1-1.1-2-2.4-2.6-3.8C328,184.6,327.7,183.1,327.7,181.4"/>
</g>
<polygon class="st1" points="231,169.4 213.3,223.4 233.6,223.4 218.4,272.5 197.2,272.5 156.1,398.2 115,272.5 93.8,272.5 
	78.6,223.4 98.9,223.4 81.2,169.4 -12.8,169.4 107.5,469 204.7,469 325,169.4 "/>
<g>
	<path class="st1" d="M143.9,308.9c4.1,0,7.4-3.3,7.4-7.3c0-4-3.3-7.3-7.4-7.3c-4.1,0-7.4,3.3-7.4,7.3
		C136.5,305.6,139.8,308.9,143.9,308.9"/>
	<path class="st1" d="M168.3,308.9c4.1,0,7.4-3.3,7.4-7.3c0-4-3.3-7.3-7.4-7.3c-4.1,0-7.4,3.3-7.4,7.3
		C160.9,305.6,164.2,308.9,168.3,308.9"/>
</g>
</svg>
